HIERARCHY
ROOT Hips
{
	OFFSET -0.001795 -0.223333 0.028219
	CHANNELS 6 Xposition Yposition Zposition Zrotation Yrotation Xrotation 
	JOINT LeftUpLeg
	{
		OFFSET 0.069520 -0.091406 -0.006815
		CHANNELS 3 Zrotation Yrotation Xrotation
		JOINT LeftLeg
		{
			OFFSET 0.034277 -0.375199 -0.004496
			CHANNELS 3 Zrotation Yrotation Xrotation
			JOINT LeftFoot
			{
				OFFSET -0.013596 -0.397961 -0.043693
				CHANNELS 3 Zrotation Yrotation Xrotation
				JOINT LeftToe
				{
					OFFSET 0.026358 -0.055791 0.119288
					CHANNELS 3 Zrotation Yrotation Xrotation
					End Site
					{
						OFFSET 0.000000 0.000000 0.000000
					}
				}
			}
		}
	}
	JOINT RightUpLeg
	{
		OFFSET -0.067670 -0.090522 -0.004320
		CHANNELS 3 Zrotation Yrotation Xrotation
		JOINT RightLeg
		{
			OFFSET -0.038290 -0.382569 -0.008850
			CHANNELS 3 Zrotation Yrotation Xrotation
			JOINT RightFoot
			{
				OFFSET 0.015774 -0.398415 -0.042312
				CHANNELS 3 Zrotation Yrotation Xrotation
				JOINT RightToe
				{
					OFFSET -0.025372 -0.048144 0.123348
					CHANNELS 3 Zrotation Yrotation Xrotation
					End Site
					{
						OFFSET 0.000000 0.000000 0.000000
					}
				}
			}
		}
	}
	JOINT Spine
	{
		OFFSET -0.002533 0.108963 -0.026696
		CHANNELS 3 Zrotation Yrotation Xrotation
		JOINT Spine1
		{
			OFFSET 0.005487 0.135180 0.001092
			CHANNELS 3 Zrotation Yrotation Xrotation
			JOINT Spine2
			{
				OFFSET 0.001457 0.052922 0.025425
				CHANNELS 3 Zrotation Yrotation Xrotation
				JOINT Neck
				{
					OFFSET -0.002778 0.213870 -0.042857
					CHANNELS 3 Zrotation Yrotation Xrotation
					JOINT Head
					{
						OFFSET 0.005152 0.064970 0.051349
						CHANNELS 3 Zrotation Yrotation Xrotation
						End Site
						{
							OFFSET 0.000000 0.000000 0.000000
						}
					}
				}
				JOINT LeftShoulder
				{
					OFFSET 0.078845 0.121749 -0.034090
					CHANNELS 3 Zrotation Yrotation Xrotation
					JOINT LeftArm
					{
						OFFSET 0.090977 0.030469 -0.008868
						CHANNELS 3 Zrotation Yrotation Xrotation
						JOINT LeftForeArm
						{
							OFFSET 0.259612 -0.012772 -0.027456
							CHANNELS 3 Zrotation Yrotation Xrotation
							JOINT LeftHand
							{
								OFFSET 0.249234 0.008986 -0.001171
								CHANNELS 3 Zrotation Yrotation Xrotation
								End Site
								{
									OFFSET 0.000000 0.000000 0.000000
								}
							}
						}
					}
				}
				JOINT RightShoulder
				{
					OFFSET -0.081759 0.118833 -0.038615
					CHANNELS 3 Zrotation Yrotation Xrotation
					JOINT RightArm
					{
						OFFSET -0.096012 0.032551 -0.009143
						CHANNELS 3 Zrotation Yrotation Xrotation
						JOINT RightForeArm
						{
							OFFSET -0.253742 -0.013329 -0.021401
							CHANNELS 3 Zrotation Yrotation Xrotation
							JOINT RightHand
							{
								OFFSET -0.255298 0.007772 -0.005559
								CHANNELS 3 Zrotation Yrotation Xrotation
								End Site
								{
									OFFSET 0.000000 0.000000 0.000000
								}
							}
						}
					}
				}
			}
		}
	}
}
MOTION
Frames: 18
Frame Time: 0.050000
-0.269451 0.961549 2.679662 -2.597560 10.594824 -4.261402 4.477862 0.088164 6.186562 -3.041396 0.282336 -4.713088 2.678946 9.308280 9.798325 0.000000 0.000000 0.000000 3.598240 -0.679583 4.674525 0.433517 -0.125370 -2.055217 -2.224721 -7.805709 11.576575 0.000000 0.000000 0.000000 -2.939877 -0.128473 5.577785 5.739753 -0.578078 -25.299242 -0.887342 -5.670723 30.682518 2.477740 0.575154 -30.303785 0.000000 0.000000 0.000000 -28.104376 -1.729086 -1.053253 -54.997704 -5.118868 -6.948663 -19.944547 -47.809878 12.154125 0.000000 0.000000 0.000000 17.126236 10.320202 4.990939 61.423075 6.375150 -5.664485 10.967604 46.620070 7.749642 0.000000 0.000000 0.000000 
-0.269711 0.961833 2.679370 -2.515419 10.318207 -4.068046 4.477289 0.092557 6.175846 -2.983895 0.282350 -4.875274 2.747473 9.530697 10.217298 0.000000 0.000000 0.000000 3.657644 -0.680258 4.654260 0.096001 -0.094992 -2.244810 -2.279835 -8.005258 11.969406 0.000000 0.000000 0.000000 -2.901316 -0.129711 5.663450 5.783211 -0.596222 -25.226980 -0.907832 -5.530679 30.939462 2.356586 0.610734 -30.075942 0.000000 0.000000 0.000000 -28.070129 -1.274065 -1.311909 -55.543923 -4.152487 -7.477862 -18.813742 -43.760978 10.521856 0.000000 0.000000 0.000000 17.192827 10.081927 4.867587 62.288032 5.318216 -6.291137 9.844019 43.025712 6.556061 0.000000 0.000000 0.000000 
-0.269983 0.961916 2.678942 -2.469827 9.846603 -4.081345 4.475788 0.109114 6.377273 -3.087043 0.291211 -4.899221 2.972752 9.755583 9.912752 0.000000 0.000000 0.000000 3.756749 -0.659633 4.491649 -0.125800 -0.057921 -1.919586 -2.489949 -8.516479 12.249244 0.000000 0.000000 0.000000 -2.807855 -0.144730 6.132107 5.809481 -0.615355 -25.144720 -0.732466 -5.334936 31.000424 2.417880 0.510936 -29.562906 0.000000 0.000000 0.000000 -28.002698 -1.094353 -1.356348 -56.098912 -2.765554 -8.210047 -17.896450 -40.113758 9.201057 0.000000 0.000000 0.000000 17.402996 9.900483 4.753302 62.882542 4.132157 -6.979676 8.945007 40.007121 5.635182 0.000000 0.000000 0.000000 
-0.270299 0.962058 2.678130 -2.371406 9.468408 -4.078716 4.145179 0.147537 6.430734 -2.729139 0.278979 -4.742927 3.504360 10.603170 10.029133 0.000000 0.000000 0.000000 3.910523 -0.688755 4.639032 -0.572671 -0.017970 -2.118084 -2.701024 -9.027073 12.643136 0.000000 0.000000 0.000000 -2.604935 -0.167325 6.659618 5.790352 -0.600813 -25.433467 -0.776339 -5.378584 31.456825 2.244248 0.522055 -29.258211 0.000000 0.000000 0.000000 -27.577420 -0.564631 -1.515358 -56.605974 -1.587811 -8.901075 -17.821510 -37.661436 8.598235 0.000000 0.000000 0.000000 17.155941 9.263097 4.345918 63.711634 2.808598 -7.811030 8.506254 37.544477 5.048105 0.000000 0.000000 0.000000 
-0.270551 0.962066 2.677037 -2.375084 9.318051 -3.959152 3.868794 0.174391 6.470340 -2.219821 0.258409 -4.985882 3.702670 10.948756 10.186078 0.000000 0.000000 0.000000 4.009492 -0.659197 4.408329 -0.659835 0.001491 -1.888201 -2.899006 -9.436307 12.734573 0.000000 0.000000 0.000000 -2.468948 -0.190701 7.248395 5.775535 -0.579716 -25.778443 -0.700472 -5.540611 31.747488 2.143814 0.532793 -29.381623 0.000000 0.000000 0.000000 -27.429003 -0.181112 -1.631786 -56.926297 -0.188149 -9.657190 -18.057270 -36.222432 8.351981 0.000000 0.000000 0.000000 16.780845 8.804956 4.037560 63.945741 1.781287 -8.432637 8.798011 35.569734 4.784954 0.000000 0.000000 0.000000 
-0.270894 0.961930 2.675814 -2.294856 9.563693 -3.837909 3.464952 0.201181 6.416175 -1.664997 0.231060 -4.899144 3.769318 11.077157 10.218072 0.000000 0.000000 0.000000 4.226848 -0.673774 4.432967 -0.934327 0.014080 -2.257714 -3.188634 -10.025963 13.329794 0.000000 0.000000 0.000000 -2.469216 -0.204677 7.675188 5.966799 -0.631921 -25.623315 -0.908188 -5.951734 31.826576 1.738311 0.672252 -28.892774 0.000000 0.000000 0.000000 -27.121253 0.413467 -1.886913 -56.639633 0.703070 -10.045876 -18.062095 -35.786805 8.257198 0.000000 0.000000 0.000000 16.742308 8.106541 3.615121 63.868610 0.561081 -9.097383 8.826129 34.594338 4.607236 0.000000 0.000000 0.000000 
-0.271246 0.961993 2.674800 -2.289995 9.642632 -3.702925 3.168862 0.228314 6.524976 -0.937049 0.199197 -5.024356 3.618876 10.815326 10.102680 0.000000 0.000000 0.000000 4.302404 -0.673460 4.401377 -0.972497 0.018468 -2.252285 -3.157256 -9.958555 13.360857 0.000000 0.000000 0.000000 -2.269244 -0.232173 8.140587 5.862405 -0.603846 -25.630773 -0.840505 -5.863577 31.913735 1.639621 0.737650 -28.751800 0.000000 0.000000 0.000000 -26.732317 1.019625 -2.284037 -56.108191 1.473543 -10.311714 -18.242683 -35.245285 8.149455 0.000000 0.000000 0.000000 16.750025 7.163247 3.160967 63.055972 -0.673771 -9.670560 9.202943 33.942169 4.605503 0.000000 0.000000 0.000000 
-0.271598 0.962287 2.674157 -2.332857 9.909592 -3.602163 3.041871 0.238882 6.651336 -0.705149 0.191339 -5.224902 3.583560 10.779686 10.116477 0.000000 0.000000 0.000000 4.399479 -0.696149 4.512628 -1.016877 -0.002408 -2.780687 -3.207804 -10.101764 14.124889 0.000000 0.000000 0.000000 -2.240951 -0.249915 8.547849 6.128862 -0.669503 -25.520258 -0.888596 -5.788729 31.845593 1.246723 0.984600 -28.464763 0.000000 0.000000 0.000000 -26.180035 1.966089 -2.922468 -55.569185 2.933284 -10.834010 -18.895953 -35.295846 8.334799 0.000000 0.000000 0.000000 16.520294 5.922483 2.561543 62.207578 -2.991844 -10.735196 9.463305 34.632709 4.800857 0.000000 0.000000 0.000000 
-0.271856 0.962321 2.673934 -2.332932 9.762702 -3.348076 2.945707 0.239007 6.424919 -0.459419 0.177961 -5.086486 3.587242 10.697546 9.837433 0.000000 0.000000 0.000000 4.430413 -0.665462 4.293934 -0.925788 -0.014681 -2.834298 -3.147950 -9.988593 13.946796 0.000000 0.000000 0.000000 -2.146109 -0.258792 8.670266 6.138199 -0.689729 -25.212141 -0.792398 -5.027228 31.688442 1.215936 1.084195 -27.851350 0.000000 0.000000 0.000000 -25.487529 3.516492 -4.046349 -54.805741 4.561069 -11.335644 -19.111915 -35.594620 8.394803 0.000000 0.000000 0.000000 16.630204 4.549845 1.987671 61.034422 -5.992612 -12.011163 10.312466 35.810631 5.291369 0.000000 0.000000 0.000000 
-0.272029 0.962638 2.674184 -2.381177 9.655200 -3.224480 2.868298 0.236234 6.187426 -0.725214 0.179312 -4.522961 3.686545 10.897973 10.018037 0.000000 0.000000 0.000000 4.338755 -0.582363 3.778828 -0.761998 -0.015663 -2.504204 -2.947908 -9.673334 14.374493 0.000000 0.000000 0.000000 -1.954009 -0.272300 8.694748 5.934495 -0.650547 -25.068722 -0.687099 -4.398242 31.683719 1.004856 1.328510 -28.085346 0.000000 0.000000 0.000000 -24.699154 5.017709 -5.053761 -54.496234 6.854762 -12.220599 -19.472473 -36.241039 8.611896 0.000000 0.000000 0.000000 16.692728 2.884445 1.232814 59.327977 -9.489388 -13.327170 12.346322 38.804903 6.558441 0.000000 0.000000 0.000000 
-0.272134 0.962416 2.674836 -2.247452 9.525221 -2.961341 2.743384 0.236344 5.931990 -1.107501 0.189863 -4.002979 3.976060 11.195327 9.487604 0.000000 0.000000 0.000000 4.179489 -0.505411 3.302156 -0.636585 -0.013222 -2.159821 -2.940950 -9.669286 14.320337 0.000000 0.000000 0.000000 -2.283671 -0.240404 8.511505 6.095578 -0.692824 -25.044892 -0.556090 -3.842904 32.112070 0.804004 1.503824 -27.692426 0.000000 0.000000 0.000000 -23.461826 7.464255 -6.460762 -54.193827 10.618529 -13.765522 -23.548367 -40.404447 11.256044 0.000000 0.000000 0.000000 16.448901 0.871203 0.284021 58.412774 -12.966612 -14.734359 14.905043 42.198824 8.309712 0.000000 0.000000 0.000000 
-0.272298 0.962183 2.675666 -2.110817 9.569640 -2.585494 2.878610 0.219677 5.855070 -1.548456 0.214394 -4.090477 3.763479 10.869250 9.525720 0.000000 0.000000 0.000000 3.813305 -0.438694 2.924379 -0.370845 -0.031945 -1.933665 -3.193850 -10.155314 14.553965 0.000000 0.000000 0.000000 -2.504843 -0.208025 8.083001 5.979347 -0.657297 -25.090753 -0.315582 -3.601397 32.548826 0.521770 1.755440 -28.342324 0.000000 0.000000 0.000000 -22.793374 9.315065 -7.516179 -53.979511 13.887261 -15.115605 -29.542147 -45.580654 15.552910 0.000000 0.000000 0.000000 16.357972 -0.914199 -0.581019 57.350463 -15.379763 -15.561753 19.462969 47.095308 11.592018 0.000000 0.000000 0.000000 
-0.272481 0.962817 2.676112 -2.015615 9.366138 -2.389361 2.658210 0.248289 6.036273 -1.651600 0.226782 -4.558066 3.569829 10.735001 10.185071 0.000000 0.000000 0.000000 3.515403 -0.407440 2.764542 -0.047166 -0.065340 -1.880621 -3.177158 -10.159884 14.602506 0.000000 0.000000 0.000000 -2.603109 -0.183329 7.599161 5.965963 -0.661152 -24.982468 -0.348794 -3.478864 32.598343 0.452302 1.822816 -28.782026 0.000000 0.000000 0.000000 -23.182997 10.569167 -8.379264 -52.757098 15.451117 -15.347170 -35.790960 -50.649031 20.679922 0.000000 0.000000 0.000000 16.578951 -1.234113 -0.749058 58.158942 -14.097844 -15.208545 18.993114 51.985034 13.013264 0.000000 0.000000 0.000000 
-0.272668 0.963313 2.675710 -2.008509 9.818057 -2.399735 2.825304 0.230040 6.098371 -1.981212 0.240411 -4.609393 3.328522 10.356582 10.085326 0.000000 0.000000 0.000000 3.168934 -0.379903 2.653249 0.357406 -0.103833 -1.709827 -3.227867 -10.218919 14.880950 0.000000 0.000000 0.000000 -3.158089 -0.138484 7.075022 6.088637 -0.683915 -25.033777 0.058553 -3.428773 32.544425 0.674327 1.762473 -28.812548 0.000000 0.000000 0.000000 -23.706660 9.388284 -7.901085 -52.426345 13.687893 -14.493424 -42.216383 -57.190540 27.552486 0.000000 0.000000 0.000000 16.534691 -0.364885 -0.201763 59.308606 -10.383292 -13.762081 16.021917 58.456435 13.709192 0.000000 0.000000 0.000000 
-0.272724 0.964195 2.674368 -1.970261 10.499541 -2.637709 2.431442 0.258313 6.203848 -1.568632 0.220204 -4.821692 2.700692 9.598412 10.650827 0.000000 0.000000 0.000000 2.876966 -0.396474 2.851225 0.611542 -0.130364 -1.620731 -3.323253 -10.291926 14.785510 0.000000 0.000000 0.000000 -3.420649 -0.127826 7.007562 6.351457 -0.714512 -25.483398 -0.253307 -3.870332 32.239438 0.446802 1.911417 -29.177210 0.000000 0.000000 0.000000 -24.628121 7.962405 -7.243782 -52.176580 8.303488 -12.174434 -44.028289 -61.015469 30.923446 0.000000 0.000000 0.000000 16.067793 1.447742 0.765395 60.453523 -3.375490 -10.590331 9.811909 65.181099 12.192479 0.000000 0.000000 0.000000 
-0.272661 0.964597 2.672215 -2.074608 10.830879 -3.227462 2.387553 0.279164 6.651992 -1.133364 0.196858 -4.634019 2.308008 8.986664 10.572031 0.000000 0.000000 0.000000 2.557763 -0.426670 3.158553 1.135732 -0.180197 -1.190000 -3.165898 -9.944301 14.587973 0.000000 0.000000 0.000000 -3.648463 -0.127641 7.169514 6.470376 -0.743256 -25.479603 -0.236170 -4.097298 31.752702 0.809113 1.687754 -28.904527 0.000000 0.000000 0.000000 -25.081709 4.651317 -5.288416 -51.546139 0.299835 -8.748426 -41.785853 -64.252823 31.295891 0.000000 0.000000 0.000000 16.093333 4.890131 2.539840 58.807151 6.234093 -5.714401 -6.424837 69.336392 2.239038 0.000000 0.000000 0.000000 
-0.272507 0.964387 2.669524 -2.200416 10.575613 -3.807944 2.267537 0.319620 7.175208 -0.969166 0.191407 -4.683271 2.388526 9.147350 10.739020 0.000000 0.000000 0.000000 2.372931 -0.516011 3.866332 1.045194 -0.181753 -1.637302 -2.792160 -9.375719 15.213868 0.000000 0.000000 0.000000 -3.999426 -0.122041 7.475997 6.741902 -0.827986 -25.329946 -0.099268 -4.340290 30.990220 -0.216875 2.195126 -28.957629 0.000000 0.000000 0.000000 -24.787813 1.974650 -3.456754 -51.510945 -8.159242 -5.238046 -37.246093 -66.956991 29.765473 0.000000 0.000000 0.000000 14.914395 8.528527 4.180440 57.184825 15.406534 -1.084396 -23.662174 70.055401 -9.899814 0.000000 0.000000 0.000000 
-0.272318 0.963950 2.666739 -2.380405 10.699502 -4.169153 2.421758 0.323143 7.625985 -0.541418 0.177785 -5.030866 1.562255 7.712078 10.306861 0.000000 0.000000 0.000000 2.586064 -0.524515 3.881967 0.682899 -0.129000 -1.302777 -2.374787 -8.569188 15.087298 0.000000 0.000000 0.000000 -4.209212 -0.124224 7.876099 6.984052 -0.906864 -25.052299 -0.365737 -4.955621 30.071273 -0.392501 2.182961 -28.664708 0.000000 0.000000 0.000000 -25.474935 -1.288040 -1.368791 -50.744666 -14.221319 -2.620208 -27.597548 -68.960397 23.953061 0.000000 0.000000 0.000000 15.097024 12.464000 5.993596 54.536039 23.032115 2.525299 -38.186639 66.374706 -19.155318 0.000000 0.000000 0.000000 
